<svg id="dfaac59c-6850-4d5c-936e-795bc6b0a0d8" data-name="Capa 2" xmlns="http://www.w3.org/2000/svg" width="27.69mm" height="27.69mm" viewBox="0 0 78.5 78.5">
  <title>ascensor</title>
  <path d="M83.25,87.25H12.75a4,4,0,0,1-4-4V12.75a4,4,0,0,1,4-4h70.5a4,4,0,0,1,4,4v70.5A4,4,0,0,1,83.25,87.25Zm-66.5-8h62.5V16.75H16.75v62.5Z" transform="translate(-8.75 -8.75)"/>
  <g>
    <path d="M63,68.5a3,3,0,0,1-3-3v-12a3,3,0,0,1,6,0v12A3,3,0,0,1,63,68.5Zm0-23a3,3,0,0,1-3-3v-12a3,3,0,0,1,6,0v12A3,3,0,0,1,63,45.5Z" transform="translate(-8.75 -8.75)"/>
    <path d="M73.21,31.87H52.8L63,21.67Zm0,32.26H52.8L63,74.33Z" transform="translate(-8.75 -8.75)"/>
  </g>
  <path d="M41.74,42.75V58.62H38.2v14H32.53v-14H29V42.75h0.07a6.37,6.37,0,0,1,12.62,0h0.07Zm-6.38-8.26a5.24,5.24,0,1,0-5.24-5.24A5.24,5.24,0,0,0,35.36,34.49Z" transform="translate(-8.75 -8.75)"/>
</svg>
