<svg id="b16ee808-d8b8-4b91-91c9-4af07794a5b9" data-name="Superficie" xmlns="http://www.w3.org/2000/svg" width="29.63mm" height="29.63mm" viewBox="0 0 84 84">
  <title>superficie</title>
  <path d="M43.75,90H6V6H90V51.5H43.75V90Zm-2.42-1h1.42V86.26L7,49v4.22ZM35.9,89h4L7,54.63v4.22Zm-5.43,0h4L7,60.3v4.22ZM25,89h4L7,66V70.2ZM19.6,89h4L7,71.64v4.22Zm-5.43,0h4L7,77.31v4.22ZM7,89h5.78L7,83v6ZM7,47.52L42.75,84.81V80.59L7,43.3v4.22Zm0-5.67L42.75,79.14V74.92L7,37.63v4.22Zm0-5.67L42.75,73.48V69.25L7,32v4.22Zm0-5.67,35.75,37.3V63.58L7,26.29v4.22Zm0-5.67L42.75,62.14V57.91L7,20.62v4.22Zm0-5.67L42.75,56.47V52.24L7,14.95v4.22ZM7,13.5L42.75,50.8V50.5h3.77L7,9.28V13.5Zm78.94,37H89v-1L48.3,7h-4Zm-5.43,0h4L42.86,7h-4Zm-5.43,0h4L37.43,7h-4Zm-5.43,0h4L32,7h-4Zm-5.43,0h4L26.56,7h-4Zm-5.43,0h4L21.12,7h-4Zm-5.43,0h4L15.69,7h-4Zm-5.43,0h4L10.25,7H7V7.83ZM49.68,7L89,48V43.8L53.73,7h-4Zm5.43,0L89,42.35V38.13L59.17,7h-4Zm5.43,0L89,36.68V32.46L64.6,7h-4ZM66,7L89,31V26.79L70,7H66Zm5.43,0L89,25.35V21.12L75.47,7h-4Zm5.43,0L89,19.68V15.45L80.9,7h-4Zm5.43,0L89,14V7H82.29Z" transform="translate(-6 -6.01)"/>
</svg>
