<svg id="2f6eeae8-9f98-447f-8d7f-8df5961a3781" data-name="Capa 1 copia" xmlns="http://www.w3.org/2000/svg" width="33.87mm" height="33.87mm" viewBox="0 0 96 96">
  <title>superficie2</title>
  <g>
    <path d="M44.25,71.54L5.5,31.11V22.56L44.25,63v8.56ZM7.5,30.31L42.25,66.56V63.78L7.5,27.53v2.78Z"/>
    <path d="M44.25,77.21L5.5,36.78V28.22L44.25,68.65v8.56ZM7.5,36L42.25,72.23V69.45L7.5,33.2V36Z"/>
    <path d="M44.25,65.87L5.5,25.45V16.89L44.25,57.31v8.56ZM7.5,24.64L42.25,60.89V58.11L7.5,21.86v2.78Z"/>
    <path d="M44.25,82.88L5.5,42.45V33.89L44.25,74.32v8.56ZM7.5,41.65L42.25,77.9V75.12L7.5,38.87v2.78Z"/>
    <path d="M44.25,54.53L5.5,14.11V5.55L50,52l-5.78,0v2.49ZM42.68,50h2.66L7.5,10.52V13.3Z"/>
    <path d="M44.25,88.55L5.5,48.12V39.56L44.25,80v8.56ZM7.5,47.32L42.25,83.57V80.79L7.5,44.54v2.78Z"/>
    <path d="M55.47,52h-8.2L5.5,8.44V5.51h5.39Zm-7.35-2h2.66L10,7.51H7.5V7.63Z"/>
    <path d="M44.25,60.2L5.5,19.78V11.22L44.25,51.64V60.2ZM7.5,19L42.25,55.22V52.45L7.5,16.19V19Z"/>
    <path d="M27.16,90.5H19L5.5,76.47V67.91Zm-7.35-2h2.66L7.5,72.89v2.78Z"/>
    <path d="M21.73,90.5H13.52l-8-8.37V73.58Zm-7.35-2H17L7.5,78.56v2.78Z"/>
    <path d="M16.29,90.5H5.5V79.25Zm-8.79-2h4.1L7.5,84.22V88.5Z"/>
    <path d="M32.59,90.5h-8.2L5.5,70.8V62.24Zm-7.35-2h2.66L7.5,67.22V70Z"/>
    <path d="M43.46,90.5H35.26L5.5,59.46V50.9Zm-7.35-2h2.66L7.5,55.88v2.78Z"/>
    <path d="M38,90.5H29.82L5.5,65.13V56.57Zm-7.35-2h2.66L7.5,61.55v2.78Z"/>
    <path d="M44.25,90.5H40.69L5.5,53.79V45.23L44.25,85.66V90.5Zm-2.7-2h0.7v-2L7.5,50.21V53Z"/>
    <path d="M66.34,52H58.13L13.56,5.51h8.2ZM59,50h2.66L20.91,7.51H18.25Z"/>
    <path d="M90.5,46.09L51.6,5.51H59.8l30.7,32v8.56ZM56.29,7.51L88.5,41.11V38.33L59,7.51H56.29Z"/>
    <path d="M90.5,40.42L57,5.51h8.21L90.5,31.86v8.56ZM61.72,7.51L88.5,35.44V32.66L64.39,7.51H61.72Z"/>
    <path d="M90.5,29.08L67.9,5.51h8.21l14.39,15v8.56ZM72.59,7.51L88.5,24.1V21.32L75.25,7.51H72.59Z"/>
    <path d="M90.5,34.75l-28-29.24h8.21L90.5,26.19v8.56ZM67.16,7.51L88.5,29.77V27L69.82,7.51H67.16Z"/>
    <path d="M60.9,52H52.7L8.12,5.51h8.21Zm-7.35-2h2.66L15.48,7.51H12.81Z"/>
    <path d="M90.5,23.41L73.34,5.51h8.21l9,9.34v8.56ZM78,7.51L88.5,18.43V15.65L80.69,7.51H78Z"/>
    <path d="M90.5,17.74L78.77,5.51H87L90.5,9.18v8.56Zm-7-10.23,5,5.26V10L86.12,7.51H83.46Z"/>
    <polygon points="90.5 12.07 84.21 5.5 90.5 5.5 90.5 12.07"/>
    <path d="M77.21,52H69L24.43,5.51h8.21Zm-7.35-2h2.66L31.78,7.51H29.11Z"/>
    <path d="M71.77,52H63.57L19,5.51H27.2Zm-7.35-2h2.66L26.34,7.51H23.68Z"/>
    <path d="M90.5,51.76L46.17,5.51h8.21L90.5,43.2v8.56ZM50.85,7.51L88.5,46.78V44l-35-36.49H50.85Z"/>
    <path d="M82.64,52H74.44L29.86,5.51h8.21Zm-7.35-2H78L37.21,7.51H34.55Z"/>
    <path d="M90.5,52H85.3L40.73,5.51h8.2L90.5,48.87V52Zm-4.34-2H88.5V49.67L48.08,7.51H45.42Z"/>
    <path d="M88.08,52H79.87L35.3,5.51H43.5Zm-7.35-2h2.66L42.65,7.51H40Z"/>
  </g>
</svg>
